<?xml version="1.0" standalone="no"?>
<!DOCTYPE svg PUBLIC "-//W3C//DTD SVG 20010904//EN"
 "http://www.w3.org/TR/2001/REC-SVG-20010904/DTD/svg10.dtd">
<svg version="1.0" xmlns="http://www.w3.org/2000/svg"
 width="2398.000000pt" height="2386.000000pt" viewBox="0 0 2398.000000 2386.000000"
 preserveAspectRatio="xMidYMid meet">

<g transform="translate(0.000000,2386.000000) scale(0.100000,-0.100000)"
fill="#000000" stroke="none">
<path d="M56 23827 c-13 -17 -29 -45 -35 -60 -8 -20 -11 -983 -11 -3231 l0
-3203 23 -44 c13 -24 43 -57 66 -74 l43 -30 3221 0 3222 0 40 21 c22 11 54 40
70 63 l30 43 0 3228 0 3228 -30 44 -31 43 -3291 3 -3292 2 -25 -33z m5648
-901 c20 -8 39 -27 49 -49 16 -32 17 -206 17 -2337 0 -2076 -2 -2305 -16
-2335 -33 -70 168 -65 -2384 -65 -2529 0 -2345 -5 -2383 59 -16 27 -17 180
-17 2341 0 2157 1 2314 17 2341 37 63 -147 59 2381 59 1933 0 2308 -2 2336
-14z"/>
<path d="M2039 21957 c-24 -13 -57 -43 -74 -66 l-30 -43 0 -1306 0 -1307 24
-38 c13 -21 42 -50 64 -65 l41 -27 1291 -3 1292 -2 54 28 c43 22 59 38 81 81
l28 53 0 1277 0 1277 -25 50 c-27 54 -60 84 -114 102 -25 9 -360 12 -1311 12
l-1277 0 -44 -23z"/>
<path d="M8650 23400 l0 -460 -480 0 -480 0 0 -480 0 -480 480 0 480 0 0 -480
0 -480 -480 0 -480 0 0 -480 0 -480 960 0 960 0 0 -1440 0 -1440 480 0 480 0
0 1440 0 1440 480 0 480 0 0 -480 0 -480 480 0 480 0 0 -480 0 -480 -480 0
-480 0 0 -1440 0 -1440 480 0 480 0 0 1440 0 1440 480 0 480 0 0 -480 0 -480
480 0 480 0 0 480 0 480 480 0 480 0 0 -960 0 -960 -960 0 -960 0 0 -480 0
-480 480 0 480 0 0 -480 0 -480 -480 0 -480 0 0 -480 0 -480 -480 0 -480 0 0
480 0 480 -960 0 -960 0 0 -480 0 -480 -480 0 -480 0 0 960 0 960 480 0 480 0
0 480 0 480 -2400 0 -2400 0 0 -480 0 -480 -480 0 -480 0 0 480 0 480 -2400 0
-2400 0 0 -960 0 -960 480 0 480 0 0 -480 0 -480 -480 0 -480 0 0 -480 0 -480
960 0 960 0 0 960 0 960 480 0 480 0 0 -480 0 -480 960 0 960 0 0 -480 0 -480
-480 0 -480 0 0 -480 0 -480 -480 0 -480 0 0 -480 0 -480 -480 0 -480 0 0
-1440 0 -1440 480 0 480 0 0 480 0 480 480 0 480 0 0 -480 0 -480 1920 0 1920
0 0 -960 0 -960 1440 0 1440 0 0 -960 0 -960 480 0 480 0 0 -1870 0 -1870
1920 0 1920 0 0 430 0 430 2880 0 2880 0 0 -430 0 -430 1425 0 1425 0 0 430 0
430 -465 0 -465 0 0 480 0 480 465 0 465 0 0 960 0 960 -945 0 -945 0 0 -480
0 -480 -480 0 -480 0 0 -480 0 -480 -480 0 -480 0 0 960 0 960 480 0 480 0 0
960 0 960 1425 0 1425 0 0 2400 0 2400 -1425 0 -1425 0 0 -480 0 -480 480 0
480 0 0 -480 0 -480 480 0 480 0 0 -960 0 -960 -960 0 -960 0 0 -480 0 -480
-480 0 -480 0 0 960 0 960 480 0 480 0 0 480 0 480 -1920 0 -1920 0 0 480 0
480 480 0 480 0 0 480 0 480 480 0 480 0 0 -480 0 -480 480 0 480 0 0 960 0
960 480 0 480 0 0 480 0 480 -1920 0 -1920 0 0 480 0 480 480 0 480 0 0 480 0
480 480 0 480 0 0 -480 0 -480 480 0 480 0 0 960 0 960 480 0 480 0 0 480 0
480 -480 0 -480 0 0 -480 0 -480 -480 0 -480 0 0 480 0 480 -480 0 -480 0 0
-960 0 -960 -480 0 -480 0 0 960 0 960 -480 0 -480 0 0 960 0 960 -480 0 -480
0 0 480 0 480 480 0 480 0 0 960 0 960 -960 0 -960 0 0 -960 0 -960 -960 0
-960 0 0 480 0 480 480 0 480 0 0 480 0 480 -480 0 -480 0 0 -480 0 -480 -480
0 -480 0 0 960 0 960 1440 0 1440 0 0 940 0 940 -480 0 -480 0 0 -460 0 -460
-1440 0 -1440 0 0 -480 0 -480 -480 0 -480 0 0 940 0 940 -480 0 -480 0 0
-460z m1920 -2860 l0 -480 -480 0 -480 0 0 480 0 480 480 0 480 0 0 -480z
m5760 -4800 l0 -480 -480 0 -480 0 0 480 0 480 480 0 480 0 0 -480z m-12480
-960 l0 -480 -480 0 -480 0 0 480 0 480 480 0 480 0 0 -480z m3840 -480 l0
-960 480 0 480 0 0 -960 0 -960 480 0 480 0 0 480 0 480 480 0 480 0 0 -480 0
-480 480 0 480 0 0 960 0 960 480 0 480 0 0 -480 0 -480 480 0 480 0 0 480 0
480 960 0 960 0 0 480 0 480 480 0 480 0 0 -480 0 -480 -480 0 -480 0 0 -480
0 -480 960 0 960 0 0 -480 0 -480 -960 0 -960 0 0 -480 0 -480 480 0 480 0 0
-960 0 -960 -1440 0 -1440 0 0 -960 0 -960 -1920 0 -1920 0 0 480 0 480 -960
0 -960 0 0 480 0 480 960 0 960 0 0 480 0 480 480 0 480 0 0 960 0 960 -480 0
-480 0 0 -480 0 -480 -480 0 -480 0 0 -480 0 -480 -960 0 -960 0 0 -480 0
-480 -480 0 -480 0 0 480 0 480 480 0 480 0 0 480 0 480 -480 0 -480 0 0 480
0 480 960 0 960 0 0 480 0 480 -960 0 -960 0 0 480 0 480 -480 0 -480 0 0 480
0 480 480 0 480 0 0 480 0 480 960 0 960 0 0 -960z m-2880 -3840 l0 -960 -480
0 -480 0 0 960 0 960 480 0 480 0 0 -960z m10560 -4800 l0 -1920 -480 0 -480
0 0 -480 0 -480 960 0 960 0 0 480 0 480 480 0 480 0 0 -480 0 -480 480 0 480
0 0 480 0 480 480 0 480 0 0 -960 0 -960 -1920 0 -1920 0 0 -480 0 -480 -1440
0 -1440 0 0 1920 0 1920 -480 0 -480 0 0 480 0 480 960 0 960 0 0 -960 0 -960
480 0 480 0 0 1920 0 1920 480 0 480 0 0 -1920z m3840 480 l0 -1440 -1440 0
-1440 0 0 1440 0 1440 1440 0 1440 0 0 -1440z m3840 -3840 l0 -480 -480 0
-480 0 0 -480 0 -480 -480 0 -480 0 0 480 0 480 480 0 480 0 0 480 0 480 480
0 480 0 0 -480z"/>
<path d="M5770 13820 l0 -480 480 0 480 0 0 480 0 480 -480 0 -480 0 0 -480z"/>
<path d="M13450 10940 l0 -1440 -960 0 -960 0 0 -960 0 -960 480 0 480 0 0
480 0 480 480 0 480 0 0 480 0 480 480 0 480 0 0 960 0 960 480 0 480 0 0 480
0 480 -960 0 -960 0 0 -1440z"/>
<path d="M11530 10940 l0 -480 480 0 480 0 0 480 0 480 -480 0 -480 0 0 -480z"/>
<path d="M9610 8060 l0 -480 480 0 480 0 0 480 0 480 -480 0 -480 0 0 -480z"/>
<path d="M13450 2300 l0 -480 480 0 480 0 0 480 0 480 -480 0 -480 0 0 -480z"/>
<path d="M17290 6140 l0 -480 480 0 480 0 0 480 0 480 -480 0 -480 0 0 -480z"/>
<path d="M15370 23400 l0 -460 480 0 480 0 0 460 0 460 -480 0 -480 0 0 -460z"/>
<path d="M17336 23827 c-13 -17 -29 -45 -35 -60 -8 -20 -11 -983 -11 -3231 l0
-3203 23 -44 c13 -24 43 -57 66 -74 l43 -30 3201 -3 c2450 -2 3212 0 3245 9
24 7 59 27 78 44 l34 32 0 3270 0 3270 -21 27 -20 26 -3289 0 -3289 0 -25 -33z
m5648 -901 c20 -8 39 -27 49 -49 16 -32 17 -206 17 -2337 0 -2552 5 -2351 -65
-2384 -30 -14 -259 -16 -2335 -16 -2529 0 -2345 -5 -2383 59 -16 27 -17 180
-17 2341 0 2157 1 2314 17 2341 37 63 -147 59 2381 59 1933 0 2308 -2 2336
-14z"/>
<path d="M19319 21957 c-24 -13 -57 -43 -74 -66 l-30 -43 0 -1306 0 -1307 24
-38 c13 -21 42 -50 64 -65 l41 -27 1291 -3 1292 -2 54 28 c43 22 59 38 81 81
l28 53 0 1277 0 1277 -25 50 c-27 54 -60 84 -114 102 -25 9 -360 12 -1311 12
l-1277 0 -44 -23z"/>
<path d="M7690 18140 l0 -960 480 0 480 0 0 960 0 960 -480 0 -480 0 0 -960z"/>
<path d="M22090 15740 l0 -480 480 0 480 0 0 -480 0 -480 465 0 465 0 0 480 0
480 -465 0 -465 0 0 480 0 480 -480 0 -480 0 0 -480z"/>
<path d="M21130 13820 l0 -480 480 0 480 0 0 480 0 480 -480 0 -480 0 0 -480z"/>
<path d="M22090 11900 l0 -480 945 0 945 0 0 480 0 480 -945 0 -945 0 0 -480z"/>
<path d="M10 9500 l0 -1920 480 0 480 0 0 1920 0 1920 -480 0 -480 0 0 -1920z"/>
<path d="M120 6596 c-26 -13 -58 -41 -75 -65 l-30 -43 -3 -3206 c-2 -2279 0
-3218 8 -3244 l11 -38 3339 0 3339 0 11 39 c7 26 9 1039 8 3244 l-3 3205 -30
43 c-16 23 -50 53 -74 66 l-44 23 -3206 0 -3206 -1 -45 -23z m5584 -950 c20
-8 39 -27 49 -49 16 -32 17 -206 17 -2337 0 -2552 5 -2351 -65 -2384 -30 -14
-259 -16 -2335 -16 -2529 0 -2345 -5 -2383 59 -16 27 -17 180 -17 2341 0 2157
1 2314 17 2341 37 63 -147 59 2381 59 1933 0 2308 -2 2336 -14z"/>
<path d="M2039 4677 c-24 -13 -57 -43 -74 -66 l-30 -43 0 -1306 0 -1307 24
-38 c13 -21 42 -50 64 -65 l41 -27 1291 -3 1292 -2 54 28 c43 22 59 38 81 81
l28 53 0 1277 0 1277 -25 50 c-27 54 -60 84 -114 102 -25 9 -360 12 -1311 12
l-1277 0 -44 -23z"/>
<path d="M7690 2350 l0 -2350 480 0 480 0 0 430 0 430 480 0 480 0 0 -430 0
-430 480 0 480 0 0 430 0 430 -480 0 -480 0 0 480 0 480 -480 0 -480 0 0 480
0 480 480 0 480 0 0 960 0 960 -960 0 -960 0 0 -2350z"/>
</g>
</svg>
