<?xml version="1.0" standalone="no"?>
<!DOCTYPE svg PUBLIC "-//W3C//DTD SVG 20010904//EN"
 "http://www.w3.org/TR/2001/REC-SVG-20010904/DTD/svg10.dtd">
<svg version="1.0" xmlns="http://www.w3.org/2000/svg"
 width="671.000000pt" height="671.000000pt" viewBox="0 0 671.000000 671.000000"
 preserveAspectRatio="xMidYMid meet">
    <rect x="0" y="0" width="1000" height="1000" fill="#fffc00" stroke="none"/>
<g transform="translate(0.000000,671.000000) scale(0.100000,-0.100000)"
   fill="#ffffff" stroke="none">
    <path d="M0 3355 l0 -3355 3355 0 3355 0 0 3355 0 3355 -3355 0 -3355 0 0
-3355z m5835 3266 c372 -77 655 -340 772 -716 l28 -90 0 -2450 0 -2450 -22
-81 c-51 -191 -134 -336 -272 -475 -140 -140 -308 -229 -508 -270 -90 -19
-171 -19 -2515 -17 l-2423 3 -90 28 c-365 114 -612 369 -708 731 l-22 81 0
2440 0 2440 22 81 c63 238 189 427 378 567 90 67 157 103 264 141 158 57 28
54 2616 55 2295 1 2394 0 2480 -18z"/>
</g>
<g transform="translate(0.000000,671.000000) scale(0.100000,-0.100000)"
fill="#00000" stroke="none">
<path d="M987 6469 c-61 -16 -93 -72 -76 -132 25 -93 154 -106 198 -20 41 81
-35 176 -122 152z"/>
<path d="M2653 6468 c-75 -20 -99 -118 -44 -177 55 -59 158 -34 180 44 22 84
-51 156 -136 133z"/>
<path d="M2984 6465 c-48 -20 -69 -52 -69 -102 0 -126 188 -140 211 -16 15 82
-67 150 -142 118z"/>
<path d="M3994 6469 c-114 -31 -94 -209 23 -209 69 0 112 42 113 107 0 72 -64
121 -136 102z"/>
<path d="M5334 6469 c-49 -14 -77 -51 -77 -105 0 -40 4 -51 31 -76 72 -63 182
-17 182 77 0 71 -67 122 -136 104z"/>
<path d="M1287 6459 c-23 -13 -47 -62 -47 -94 0 -38 27 -84 56 -95 68 -26 133
1 154 65 14 41 8 64 -27 105 -21 26 -32 30 -71 30 -26 0 -55 -5 -65 -11z"/>
<path d="M1609 6442 c-27 -24 -32 -36 -33 -76 -1 -42 3 -51 32 -77 25 -23 42
-29 75 -29 104 1 146 126 63 192 -34 28 -100 23 -137 -10z"/>
<path d="M4631 6454 c-13 -9 -29 -31 -37 -50 -39 -94 60 -178 155 -130 57 30
69 115 22 165 -24 26 -37 31 -73 31 -24 0 -54 -7 -67 -16z"/>
<path d="M605 6107 c-28 -28 -35 -43 -35 -75 0 -50 29 -88 79 -103 80 -24 156
51 132 131 -15 50 -41 71 -95 77 -42 5 -48 3 -81 -30z"/>
<path d="M953 6120 c-34 -20 -55 -72 -46 -112 3 -13 17 -35 31 -50 67 -72 182
-24 182 75 0 31 -7 46 -34 73 -40 40 -83 45 -133 14z"/>
<path d="M1274 6106 c-27 -27 -34 -42 -34 -73 0 -127 177 -151 211 -29 19 70
-35 136 -112 136 -22 0 -41 -10 -65 -34z"/>
<path d="M1630 6127 c-34 -17 -63 -79 -55 -116 3 -16 18 -41 32 -55 69 -69
183 -21 183 77 0 31 -7 46 -34 73 -37 37 -80 44 -126 21z"/>
<path d="M1944 6106 c-27 -27 -34 -42 -34 -74 0 -48 28 -86 74 -102 70 -23
139 27 139 99 0 103 -107 149 -179 77z"/>
<path d="M2614 6106 c-56 -56 -44 -135 28 -172 57 -29 121 1 147 68 16 43 -8
102 -51 124 -47 24 -86 18 -124 -20z"/>
<path d="M3301 6126 c-58 -32 -68 -116 -22 -168 25 -28 36 -33 76 -33 40 0 51
5 76 33 47 52 37 131 -21 165 -34 20 -76 21 -109 3z"/>
<path d="M3614 6106 c-25 -25 -34 -43 -34 -67 0 -113 144 -159 201 -65 30 49
25 92 -15 132 -28 28 -42 34 -76 34 -34 0 -48 -6 -76 -34z"/>
<path d="M4284 6106 c-62 -62 -39 -152 46 -177 54 -16 109 11 128 63 18 46 9
82 -28 119 -42 43 -100 41 -146 -5z"/>
<path d="M5983 6130 c-25 -10 -49 -44 -58 -82 -9 -37 19 -92 60 -114 68 -36
155 18 155 97 0 75 -86 129 -157 99z"/>
<path d="M984 5803 c-30 -6 -72 -53 -74 -83 -5 -54 1 -73 31 -101 100 -93 243
50 150 150 -16 17 -36 31 -44 31 -9 0 -21 2 -29 4 -7 2 -23 1 -34 -1z"/>
<path d="M1313 5799 c-44 -13 -73 -53 -73 -101 0 -32 7 -47 34 -74 58 -58 141
-42 172 32 18 42 9 86 -25 117 -32 30 -65 38 -108 26z"/>
<path d="M1653 5803 c-32 -6 -72 -50 -79 -88 -11 -62 41 -125 103 -125 44 0
77 17 96 50 50 84 -21 181 -120 163z"/>
<path d="M1970 5793 c-69 -35 -81 -114 -26 -169 27 -27 42 -34 74 -34 69 0
118 63 105 134 -6 28 -55 76 -78 76 -7 0 -19 2 -27 5 -7 3 -29 -3 -48 -12z"/>
<path d="M4322 5798 c-39 -11 -72 -59 -72 -106 0 -25 9 -43 34 -68 46 -46 101
-48 148 -5 28 25 33 36 33 75 0 76 -67 126 -143 104z"/>
<path d="M4665 5803 c-31 -7 -72 -51 -79 -84 -7 -38 14 -91 45 -113 13 -9 41
-16 62 -16 51 0 107 52 107 99 0 76 -64 130 -135 114z"/>
<path d="M5338 5802 c-61 -7 -100 -85 -74 -146 45 -108 206 -76 206 41 0 23
-32 93 -42 93 -2 0 -17 3 -33 8 -17 4 -42 6 -57 4z"/>
<path d="M5655 5796 c-40 -17 -55 -37 -62 -80 -11 -72 36 -126 110 -126 64 0
113 66 100 134 -6 28 -55 76 -78 76 -7 0 -19 2 -27 5 -7 2 -27 -2 -43 -9z"/>
<path d="M6324 5796 c-43 -19 -64 -53 -64 -102 0 -72 63 -117 138 -98 47 12
75 51 74 104 -1 48 -21 76 -69 96 -39 17 -40 17 -79 0z"/>
<path d="M283 5451 c-96 -59 -30 -216 82 -195 93 17 118 156 36 199 -40 20
-79 19 -118 -4z"/>
<path d="M6304 5452 c-71 -57 -54 -164 30 -192 43 -14 96 6 122 45 19 29 21
84 4 115 -25 46 -116 65 -156 32z"/>
<path d="M630 5122 c-69 -34 -81 -113 -26 -168 56 -56 135 -44 171 26 19 37
19 54 -1 95 -15 31 -64 65 -96 65 -7 0 -29 -8 -48 -18z"/>
<path d="M1633 5124 c-31 -15 -63 -66 -63 -99 0 -25 27 -72 52 -89 46 -32 122
-15 151 34 36 60 14 130 -49 156 -42 18 -51 17 -91 -2z"/>
<path d="M5325 5130 c-55 -22 -84 -89 -61 -144 18 -44 51 -66 99 -66 31 0 46
7 73 34 58 58 42 141 -32 172 -37 16 -50 16 -79 4z"/>
<path d="M6324 5126 c-43 -19 -64 -53 -64 -102 0 -82 83 -129 158 -90 50 26
71 98 43 149 -24 45 -87 65 -137 43z"/>
<path d="M5641 4786 c-51 -29 -68 -112 -31 -159 63 -80 190 -36 193 67 2 81
-88 133 -162 92z"/>
<path d="M6324 4461 c-38 -16 -64 -60 -64 -106 0 -37 5 -48 35 -74 109 -95
244 55 142 157 -26 25 -81 36 -113 23z"/>
<path d="M275 4108 c-66 -58 -43 -163 41 -187 69 -19 134 30 134 101 0 50 -13
74 -50 93 -43 22 -94 19 -125 -7z"/>
<path d="M947 4110 c-78 -62 -38 -190 61 -192 87 -1 137 77 100 157 -24 53
-113 73 -161 35z"/>
<path d="M5645 4118 c-49 -27 -68 -83 -46 -141 13 -33 56 -59 98 -59 98 0 142
125 68 190 -29 24 -86 29 -120 10z"/>
<path d="M6289 4101 c-56 -57 -31 -159 44 -179 85 -23 158 49 136 133 -21 77
-123 103 -180 46z"/>
<path d="M294 3785 c-37 -19 -57 -53 -57 -95 0 -101 123 -146 187 -69 75 89
-26 217 -130 164z"/>
<path d="M959 3786 c-15 -9 -34 -32 -44 -52 -15 -31 -15 -43 -6 -76 35 -117
211 -90 211 32 0 80 -92 134 -161 96z"/>
<path d="M5974 3781 c-41 -25 -60 -78 -44 -125 17 -52 44 -71 102 -71 43 0 53
4 79 33 50 56 36 133 -31 167 -39 20 -69 19 -106 -4z"/>
<path d="M6324 3790 c-35 -14 -64 -59 -64 -101 0 -79 86 -132 155 -94 52 27
71 79 50 133 -24 59 -84 85 -141 62z"/>
<path d="M275 3438 c-76 -67 -32 -188 69 -188 62 0 97 33 103 96 5 46 3 53
-27 82 -40 41 -104 45 -145 10z"/>
<path d="M621 3446 c-49 -27 -65 -94 -34 -146 44 -76 158 -64 193 19 16 39 6
76 -30 112 -32 32 -86 39 -129 15z"/>
<path d="M6289 3429 c-41 -44 -41 -108 0 -150 57 -56 159 -31 179 44 20 74
-28 137 -105 137 -37 0 -50 -5 -74 -31z"/>
<path d="M959 3116 c-41 -24 -62 -77 -49 -126 13 -50 49 -75 108 -75 90 0 136
107 75 175 -33 37 -93 49 -134 26z"/>
<path d="M6324 3120 c-36 -14 -64 -59 -64 -101 0 -54 41 -98 96 -106 37 -5 46
-2 78 28 31 28 37 41 38 76 1 82 -73 134 -148 103z"/>
<path d="M642 2788 c-39 -11 -72 -59 -72 -106 0 -25 9 -43 34 -68 46 -46 101
-48 148 -5 28 25 33 36 33 75 0 76 -67 126 -143 104z"/>
<path d="M6004 2793 c-12 -2 -34 -18 -50 -34 -23 -24 -29 -39 -29 -75 0 -39 5
-50 33 -75 25 -23 42 -29 76 -29 38 0 48 5 75 35 72 83 4 198 -105 178z"/>
<path d="M6333 2788 c-75 -20 -99 -118 -44 -177 55 -59 158 -34 180 44 22 84
-51 156 -136 133z"/>
<path d="M962 2447 c-35 -20 -55 -56 -55 -99 0 -31 7 -47 32 -71 26 -27 39
-32 77 -32 39 0 50 5 75 33 22 24 29 42 29 73 0 80 -89 134 -158 96z"/>
<path d="M5625 2427 c-47 -47 -49 -101 -6 -149 25 -28 36 -33 74 -33 138 0
151 197 14 212 -43 5 -49 3 -82 -30z"/>
<path d="M5983 2450 c-49 -21 -73 -91 -48 -145 34 -71 119 -83 177 -25 60 61
20 166 -67 175 -22 3 -50 1 -62 -5z"/>
<path d="M6294 2426 c-27 -27 -34 -42 -34 -74 0 -78 80 -133 146 -100 110 54
76 208 -47 208 -22 0 -41 -10 -65 -34z"/>
<path d="M292 2110 c-92 -57 -60 -200 45 -200 69 0 112 42 113 107 0 85 -88
137 -158 93z"/>
<path d="M985 2123 c-30 -7 -72 -51 -78 -80 -12 -66 39 -133 102 -133 67 0
111 44 111 112 0 40 -21 73 -60 93 -30 15 -40 16 -75 8z"/>
<path d="M5340 2123 c-41 -13 -61 -29 -76 -61 -33 -71 19 -152 98 -152 52 0
108 51 108 99 0 47 -27 91 -65 107 -36 15 -41 15 -65 7z"/>
<path d="M283 1771 c-34 -21 -45 -45 -45 -98 0 -93 127 -133 188 -60 22 26 25
38 22 78 -9 87 -89 126 -165 80z"/>
<path d="M604 1756 c-40 -40 -45 -83 -14 -133 44 -73 158 -62 188 19 18 46 9
82 -28 119 -42 43 -100 41 -146 -5z"/>
<path d="M1274 1756 c-58 -58 -42 -141 32 -172 42 -18 86 -9 117 25 68 73 19
181 -84 181 -22 0 -41 -10 -65 -34z"/>
<path d="M4955 1757 c-40 -40 -45 -78 -19 -128 18 -36 73 -62 112 -53 36 9 80
50 87 84 7 31 -13 88 -38 109 -10 7 -37 16 -62 18 -41 5 -47 3 -80 -30z"/>
<path d="M5983 1780 c-26 -11 -63 -66 -63 -93 0 -39 33 -89 69 -104 73 -31
151 24 151 106 0 47 -55 101 -101 100 -19 0 -44 -4 -56 -9z"/>
<path d="M1974 1446 c-81 -36 -88 -146 -12 -191 34 -19 97 -16 125 7 25 21 43
74 37 107 -7 31 -48 81 -68 81 -6 0 -20 2 -31 5 -11 3 -34 -2 -51 -9z"/>
<path d="M4985 1446 c-40 -17 -55 -37 -62 -80 -12 -76 43 -133 119 -123 49 7
75 29 89 77 26 86 -63 163 -146 126z"/>
<path d="M5654 1446 c-80 -35 -88 -146 -14 -189 76 -46 163 4 162 92 -1 51
-18 77 -65 96 -45 18 -44 18 -83 1z"/>
<path d="M6324 1446 c-43 -19 -64 -53 -64 -102 0 -82 83 -129 158 -90 60 31
73 114 25 165 -34 36 -77 45 -119 27z"/>
<path d="M275 1098 c-78 -69 -27 -194 77 -192 106 3 137 154 41 203 -36 18
-89 13 -118 -11z"/>
<path d="M603 1085 c-33 -33 -35 -39 -30 -81 6 -53 27 -80 74 -93 89 -25 170
68 129 147 -22 42 -53 62 -99 62 -31 0 -46 -7 -74 -35z"/>
<path d="M947 1100 c-38 -30 -52 -80 -34 -122 27 -63 82 -89 141 -64 60 25 83
88 54 151 -24 53 -113 73 -161 35z"/>
<path d="M1617 1099 c-40 -30 -54 -87 -33 -131 20 -41 50 -60 98 -61 86 -2
136 88 91 163 -30 52 -109 67 -156 29z"/>
<path d="M2278 1091 c-28 -25 -33 -36 -33 -75 0 -81 76 -132 150 -102 68 29
85 113 34 171 -27 30 -37 35 -75 35 -34 0 -51 -6 -76 -29z"/>
<path d="M2624 1102 c-68 -54 -57 -155 21 -188 114 -47 205 109 108 186 -32
25 -100 26 -129 2z"/>
<path d="M2951 1094 c-32 -26 -48 -76 -37 -112 10 -31 53 -69 87 -76 70 -14
138 55 125 127 -9 49 -55 87 -106 87 -27 0 -48 -8 -69 -26z"/>
<path d="M3304 1111 c-51 -22 -72 -111 -38 -160 60 -85 194 -41 194 63 0 60
-33 97 -90 102 -25 2 -55 0 -66 -5z"/>
<path d="M3614 1086 c-55 -55 -41 -136 30 -170 113 -53 209 93 116 177 -45 41
-101 38 -146 -7z"/>
<path d="M4283 1085 c-33 -33 -35 -39 -30 -81 2 -25 13 -54 22 -64 48 -53 149
-39 179 25 20 41 20 58 1 95 -21 40 -53 60 -98 60 -31 0 -46 -7 -74 -35z"/>
<path d="M4627 1100 c-36 -28 -52 -83 -37 -120 26 -62 86 -90 144 -66 60 25
83 88 54 151 -24 53 -113 73 -161 35z"/>
<path d="M4968 1103 c-35 -22 -52 -64 -45 -109 7 -44 23 -63 64 -80 60 -26
131 12 147 78 8 35 -14 90 -45 112 -30 21 -86 20 -121 -1z"/>
<path d="M5297 1100 c-14 -11 -31 -36 -37 -56 -28 -85 59 -165 142 -131 44 18
59 38 65 86 13 94 -96 159 -170 101z"/>
<path d="M5641 1106 c-32 -18 -50 -53 -51 -97 0 -45 29 -84 75 -99 77 -25 160
58 135 135 -22 66 -97 95 -159 61z"/>
<path d="M5958 1091 c-28 -25 -33 -36 -33 -75 0 -38 5 -51 32 -77 25 -25 39
-32 72 -32 103 0 149 107 77 179 -46 46 -101 48 -148 5z"/>
<path d="M6291 1089 c-77 -76 -4 -208 99 -179 43 12 67 35 80 76 10 28 8 40
-7 71 -34 70 -119 86 -172 32z"/>
<path d="M1293 770 c-40 -24 -53 -48 -53 -98 0 -33 6 -45 35 -71 42 -37 85
-40 132 -11 69 42 64 148 -10 183 -45 22 -65 21 -104 -3z"/>
<path d="M1633 774 c-87 -44 -72 -182 22 -200 47 -9 80 1 110 34 23 23 26 34
22 75 -7 84 -81 128 -154 91z"/>
<path d="M1974 781 c-38 -16 -64 -60 -64 -106 0 -37 5 -48 37 -75 32 -28 41
-32 80 -27 23 2 50 11 60 18 25 21 43 74 37 108 -12 61 -94 105 -150 82z"/>
<path d="M2644 781 c-38 -16 -64 -60 -64 -106 0 -37 5 -48 35 -74 107 -93 248
56 146 153 -30 29 -84 41 -117 27z"/>
<path d="M3643 775 c-33 -14 -63 -59 -63 -95 0 -29 26 -76 52 -94 56 -40 151
1 164 70 9 51 -16 101 -61 120 -42 17 -51 17 -92 -1z"/>
<path d="M3985 781 c-27 -12 -61 -51 -68 -79 -9 -40 12 -91 46 -112 47 -29 90
-26 132 11 30 27 35 37 35 75 0 76 -79 134 -145 105z"/>
<path d="M4313 775 c-70 -30 -82 -129 -22 -179 36 -30 92 -35 127 -10 26 18
52 65 52 94 0 37 -30 81 -65 96 -42 17 -51 17 -92 -1z"/>
<path d="M5313 774 c-46 -23 -69 -76 -54 -126 36 -119 210 -95 211 29 0 83
-83 135 -157 97z"/>
<path d="M5654 781 c-36 -16 -64 -60 -64 -103 0 -52 51 -108 98 -108 72 0 115
41 115 111 0 71 -84 127 -149 100z"/>
<path d="M947 430 c-38 -30 -52 -80 -34 -122 26 -60 71 -84 132 -67 117 33 92
209 -29 209 -28 0 -52 -7 -69 -20z"/>
<path d="M1294 440 c-81 -33 -65 -175 23 -199 79 -22 158 57 133 134 -21 63
-89 92 -156 65z"/>
<path d="M1621 434 c-49 -35 -60 -113 -22 -158 68 -80 191 -31 191 76 -1 77
-104 127 -169 82z"/>
<path d="M1940 418 c-29 -29 -32 -36 -28 -80 6 -55 26 -83 74 -98 76 -25 159
59 134 135 -16 49 -53 75 -106 75 -34 0 -48 -6 -74 -32z"/>
<path d="M2609 421 c-23 -24 -29 -38 -29 -74 0 -130 175 -154 210 -29 19 71
-31 132 -108 132 -35 0 -49 -6 -73 -29z"/>
<path d="M3281 421 c-26 -24 -31 -37 -31 -74 0 -77 62 -125 135 -106 77 21
103 123 46 180 -42 41 -106 41 -150 0z"/>
<path d="M3955 428 c-66 -58 -43 -163 41 -187 72 -20 134 30 134 106 0 36 -6
50 -29 74 -38 38 -106 41 -146 7z"/>
<path d="M4304 439 c-27 -14 -54 -60 -54 -94 0 -63 51 -110 118 -108 28 1 44
9 69 37 19 21 33 46 33 61 0 34 -24 80 -52 99 -25 18 -82 20 -114 5z"/>
<path d="M4631 434 c-31 -22 -52 -75 -45 -113 3 -16 19 -42 35 -57 50 -48 146
-30 169 32 31 79 -15 154 -94 154 -23 0 -52 -7 -65 -16z"/>
<path d="M4975 438 c-56 -30 -71 -97 -35 -155 46 -75 168 -54 195 35 9 31 -12
88 -42 112 -28 22 -86 26 -118 8z"/>
<path d="M5621 419 c-26 -25 -31 -39 -31 -76 0 -37 5 -50 30 -73 39 -36 76
-43 120 -22 107 51 73 202 -46 202 -34 0 -48 -6 -73 -31z"/>
</g>
</svg>
